<?xml version="1.0" standalone="no"?>
<!DOCTYPE svg PUBLIC "-//W3C//DTD SVG 20010904//EN"
 "http://www.w3.org/TR/2001/REC-SVG-20010904/DTD/svg10.dtd">
<svg version="1.0" xmlns="http://www.w3.org/2000/svg"
 width="120.000000pt" height="120.000000pt" viewBox="0 0 120.000000 120.000000"
 preserveAspectRatio="xMidYMid meet">

<g transform="translate(0.000000,120.000000) scale(0.100000,-0.100000)"
fill="#000000" stroke="none">
<path d="M0 600 l0 -600 600 0 600 0 0 600 0 600 -600 0 -600 0 0 -600z m503
245 c39 -74 136 -134 220 -135 26 0 47 -4 47 -8 0 -5 -13 -20 -28 -35 -24 -23
-34 -26 -63 -21 -110 21 -210 135 -208 239 1 34 2 36 8 15 5 -14 15 -39 24
-55z m31 -143 c39 -35 109 -71 139 -72 26 0 21 -18 -11 -34 -33 -17 -63 -6
-124 44 -43 35 -98 140 -98 184 0 28 3 25 29 -29 15 -33 45 -75 65 -93z m263
-91 c-9 -103 -60 -188 -146 -243 -63 -40 -83 -35 -28 7 54 41 95 118 106 199
6 40 14 60 32 75 13 11 28 20 33 21 5 0 6 -26 3 -59z m-91 -73 c-22 -77 -61
-131 -125 -172 -69 -44 -100 -48 -40 -4 57 41 64 50 101 128 29 62 67 115 76
106 2 -3 -3 -28 -12 -58z"/>
</g>
</svg>
