<?xml version="1.0" standalone="no"?>
<!DOCTYPE svg PUBLIC "-//W3C//DTD SVG 20010904//EN"
 "http://www.w3.org/TR/2001/REC-SVG-20010904/DTD/svg10.dtd">
<svg version="1.0" xmlns="http://www.w3.org/2000/svg"
 width="512.000000pt" height="512.000000pt" viewBox="0 0 512.000000 512.000000"
 preserveAspectRatio="xMidYMid meet">

<g transform="translate(0.000000,512.000000) scale(0.100000,-0.100000)"
fill="#000000" stroke="none">
<path d="M1540 5100 c-11 -11 -20 -24 -20 -28 0 -4 -7 -59 -15 -122 -22 -173
-42 -431 -61 -775 -16 -310 -16 -312 25 -2210 27 -1221 46 -1910 53 -1928 6
-15 20 -30 32 -32 11 -3 207 -4 435 -3 l414 3 17 25 c16 23 21 146 54 1385 21
748 41 1455 46 1571 9 210 28 394 40 394 12 0 31 -184 40 -394 5 -116 25 -823
46 -1571 33 -1239 38 -1362 54 -1385 l17 -25 426 -3 c461 -2 450 -4 462 51 2
12 23 870 46 1907 48 2182 47 2410 -11 2870 -23 178 -42 260 -67 277 -13 10
-230 13 -1015 13 -985 0 -998 0 -1018 -20z m530 -155 l0 -55 -226 0 -227 0 7
38 c3 20 6 45 6 55 0 16 17 17 220 17 l220 0 0 -55z m430 0 l0 -55 -155 0
-155 0 0 55 0 55 155 0 155 0 0 -55z m152 43 c-7 -7 -12 -26 -12 -43 0 -17 5
-36 12 -43 9 -9 7 -12 -10 -12 -20 0 -22 5 -22 55 0 50 2 55 22 55 17 0 19 -3
10 -12z m278 -43 l0 -55 -101 0 c-80 0 -99 3 -92 13 19 24 21 45 8 71 l-14 26
100 0 99 0 0 -55z m563 38 c3 -10 8 -35 12 -55 l6 -38 -231 0 -230 0 0 55 0
55 219 0 c201 0 220 -2 224 -17z m-1718 -265 c-11 -81 -44 -157 -87 -204 -35
-38 -92 -73 -103 -62 -5 5 14 284 21 306 2 8 29 12 90 12 l86 0 -7 -52z m295
37 c0 -22 37 -55 62 -55 27 0 58 27 58 52 0 17 11 18 155 18 l155 0 0 -567 c0
-542 -1 -570 -20 -620 -24 -65 -55 -231 -69 -383 -10 -96 -91 -2799 -91 -3012
l0 -68 -345 0 -345 0 0 49 c0 28 -18 857 -41 1843 -38 1659 -40 1916 -22 2205
l6 102 31 7 c153 33 268 185 292 387 l6 57 84 0 c68 0 84 -3 84 -15z m610
-302 c0 -324 -4 -364 -40 -418 l-20 -30 0 383 0 382 30 0 30 0 0 -317z m250
300 c0 -25 30 -53 57 -53 26 0 63 32 63 55 0 12 16 15 84 15 l85 0 6 -47 c24
-189 118 -333 251 -382 30 -12 59 -21 63 -21 11 0 19 -107 27 -335 3 -105 -11
-923 -35 -1973 -23 -986 -41 -1815 -41 -1843 l0 -49 -345 0 -345 0 0 68 c0
213 -81 2916 -91 3012 -14 152 -45 318 -69 383 -16 41 -20 77 -20 168 l0 116
45 29 c50 31 88 81 113 146 14 36 17 96 20 386 l3 342 64 0 c54 0 65 -3 65
-17z m594 0 c2 -10 8 -82 11 -160 8 -163 7 -164 -63 -113 -68 49 -109 130
-126 248 l-6 42 89 0 c77 0 90 -3 95 -17z"/>
</g>
</svg>
