<?xml version="1.0" standalone="no"?>
<!DOCTYPE svg PUBLIC "-//W3C//DTD SVG 20010904//EN"
 "http://www.w3.org/TR/2001/REC-SVG-20010904/DTD/svg10.dtd">
<svg version="1.0" xmlns="http://www.w3.org/2000/svg"
 width="2048.000000pt" height="2048.000000pt" viewBox="0 0 2048.000000 2048.000000"
 preserveAspectRatio="xMidYMid meet">

<g transform="translate(0.000000,2048.000000) scale(0.100000,-0.100000)"
fill="#000000" stroke="none">
<path d="M4895 20310 c-327 -8 -394 -12 -680 -46 -496 -58 -892 -151 -1275
-301 -132 -51 -458 -208 -593 -284 -694 -393 -1297 -1031 -1663 -1760 -237
-474 -384 -990 -463 -1629 -30 -243 -40 -431 -51 -965 -11 -518 -12 -9057 -1
-9257 l6 -117 125 101 c670 544 1440 993 2230 1303 102 40 209 81 239 91 l53
19 -6 115 c-17 298 -26 1159 -26 2615 0 2198 20 3050 86 3640 101 913 395
1679 874 2280 133 167 448 482 615 615 594 474 1347 765 2250 869 602 70 1434
91 3630 91 2883 -1 3594 -35 4300 -211 620 -154 1132 -400 1575 -753 161 -129
478 -446 607 -608 352 -440 599 -958 752 -1573 183 -741 217 -1519 208 -4750
-5 -1650 -9 -1912 -37 -2525 -38 -811 -141 -1371 -353 -1912 -203 -516 -446
-892 -830 -1284 -377 -386 -751 -643 -1225 -843 -532 -225 -1080 -343 -1812
-391 -96 -7 -176 -13 -178 -15 -2 -2 26 -68 61 -147 237 -524 422 -1053 568
-1625 55 -217 142 -631 170 -806 l12 -79 806 5 c819 5 959 10 1366 52 651 67
1194 219 1699 474 1001 506 1743 1367 2112 2454 94 277 169 612 214 949 54
408 51 247 60 3353 8 2619 -2 8431 -15 8525 -2 19 -12 105 -20 190 -67 678
-203 1179 -465 1715 -205 418 -432 742 -755 1074 -614 631 -1372 1038 -2272
1221 -331 66 -631 102 -1023 122 -260 13 -10306 20 -10875 8z"/>
<path d="M8050 16333 c-278 -6 -916 -34 -1085 -49 -545 -46 -951 -149 -1340
-339 -257 -126 -466 -282 -682 -509 -389 -408 -617 -930 -712 -1631 -34 -247
-44 -395 -72 -1060 -24 -547 -21 -4911 3 -4929 2 -2 89 10 193 25 649 94 1321
109 1970 43 302 -30 685 -92 953 -153 75 -17 82 -18 69 -3 -505 586 -825 1321
-911 2092 -42 373 -26 772 45 1140 176 914 671 1722 1406 2297 1089 852 2558
1047 3837 511 916 -383 1659 -1128 2047 -2049 429 -1019 389 -2201 -106 -3189
-454 -905 -1249 -1598 -2200 -1916 -360 -120 -675 -179 -1072 -200 l-131 -6
199 -150 c587 -439 1144 -977 1605 -1548 113 -141 365 -476 392 -522 l17 -31
220 7 c913 27 1330 78 1745 211 456 147 762 334 1075 656 244 251 393 482 518
799 160 408 235 813 266 1435 34 667 36 847 36 2985 0 2138 -2 2318 -36 2985
-35 703 -140 1182 -355 1620 -142 289 -341 542 -609 773 -295 253 -647 427
-1100 541 -396 99 -800 135 -1830 161 -340 8 -3974 11 -4355 3z m6310 -1234
c275 -44 534 -235 657 -484 135 -270 124 -581 -28 -852 -60 -107 -215 -262
-322 -322 -160 -90 -319 -127 -502 -118 -174 9 -315 57 -460 158 -187 129
-320 330 -366 554 -77 370 92 752 419 948 86 52 214 101 302 116 77 12 223 13
300 0z"/>
<path d="M10060 12713 c-598 -47 -1148 -300 -1570 -723 -206 -206 -347 -404
-475 -665 -386 -786 -325 -1720 160 -2450 98 -148 188 -259 315 -386 805 -808
2065 -959 3040 -365 323 197 628 502 823 821 317 522 434 1140 327 1732 -154
853 -738 1559 -1553 1878 -318 124 -725 185 -1067 158z"/>
</g>
</svg>
